#!OML:ASF H:\Terrain\Patient Classification 1\Animal1\Tuesday\Animal1.ASF
:FULLY-SPECIFIED
:DEGREES
2644
root 11.8174 16.6524 -2.90395 -169.67 -168.994 -182.02
lowerback -7.88521 -0.51522 -0.575491
upperback -9.14137 -0.693854 0.599894
thorax -5.08839 -0.313587 0.924909
lowerneck -7.42137 -4.04167 -8.04608
upperneck 11.8826 -6.08934 11.9152
head 5.39582 -2.61653 4.64109
rclavicle -1.49089e-014 -9.93923e-016
rhumerus -41.2292 11.8595 -96.12
rradius 30.0269
rwrist -0.957982
rhand -3.63874 20.1131
rfingers 7.12502
rthumb 22.1008 -8.6438
lclavicle -1.49089e-014 -9.93923e-016
lhumerus -43.5569 -5.41729 94.5651
lradius 30.9539
lwrist -37.8121
lhand 9.31454 39.4228
lfingers 7.12502
lthumb 34.4759 66.0997
rfemur -21.657 26.0331 18.8389
rtibia 27.6172
rfoot -7.38723 -26.8132
rtoes -9.97242
lfemur -13.8839 -40.7001 -21.4549
ltibia 23.0699
lfoot -28.5559 38.2875
ltoes 32.2159
2645
root 11.8288 16.651 -2.92013 -169.713 -168.616 -181.747
lowerback -7.82227 -0.608044 -0.848976
upperback -9.05433 -0.809046 0.573952
thorax -5.02495 -0.35739 1.04699
lowerneck -7.4158 -4.09685 -8.08168
upperneck 11.6273 -6.14799 11.9918
head 5.32639 -2.64676 4.66495
rclavicle 3.97569e-016 2.38542e-015
rhumerus -41.3578 13.2687 -97.224
rradius 30.3803
rwrist -2.68923
rhand -4.58515 20.1953
rfingers 7.12502
rthumb 21.192 -8.6664
lclavicle 3.97569e-016 2.38542e-015
lhumerus -43.3854 -4.89464 94.2897
lradius 30.5068
lwrist -38.6458
lhand 9.46271 39.0473
lfingers 7.12502
lthumb 34.6166 65.6921
rfemur -21.8203 25.8342 18.446
rtibia 27.612
rfoot -7.81937 -26.2978
rtoes -8.67809
lfemur -13.9231 -40.4828 -21.8255
ltibia 23.0685
lfoot -28.169 38.6898
ltoes 31.7347
2646
root 11.8386 16.6529 -2.94397 -169.573 -168.23 -181.676
lowerback -7.76343 -0.667325 -0.943292
upperback -9.00761 -0.886359 0.568874
thorax -5.00462 -0.391797 1.09221
lowerneck -7.50429 -4.17699 -7.94554
upperneck 11.3723 -6.2394 11.9436
head 5.26801 -2.68987 4.61568
rclavicle 2.03754e-015 -5.96354e-015
rhumerus -41.2919 13.9245 -97.8369
rradius 30.6972
rwrist -3.12742
rhand -4.26356 20.8519
rfingers 7.12502
rthumb 21.5009 -7.97477
lclavicle 2.03754e-015 -5.96354e-015
lhumerus -43.1859 -4.37865 93.96
lradius 30.2014
lwrist -39.3621
lhand 9.63711 38.7334
lfingers 7.12502
lthumb 34.7821 65.3401
rfemur -22.2189 25.9297 18.1574
rtibia 27.5995
rfoot -7.48557 -26.0915
rtoes -9.21307
lfemur -14.2447 -40.0169 -21.7675
ltibia 23.055
lfoot -28.1083 38.6109
ltoes 31.8131
2647
root 11.8516 16.6535 -2.96274 -169.438 -167.975 -181.715
lowerback -7.65619 -0.756951 -0.848328
upperback -9.00594 -1.01069 0.602227
thorax -5.06008 -0.458774 1.07131
lowerneck -7.62952 -4.20885 -7.85367
upperneck 11.3085 -6.27163 11.8688
head 5.26849 -2.70321 4.57108
rclavicle 8.57259e-015 6.95746e-015
rhumerus -41.2281 13.8369 -97.9199
rradius 31.0308
rwrist -1.96647
rhand -2.74798 21.2152
rfingers 7.12502
rthumb 22.9558 -7.43804
lclavicle 8.57259e-015 6.95746e-015
lhumerus -43.2079 -4.16472 93.8749
lradius 30.1164
lwrist -39.5147
lhand 9.88392 38.8384
lfingers 7.12502
lthumb 35.0162 65.3907
rfemur -22.4896 25.9617 18.0289
rtibia 27.5179
rfoot -7.03618 -25.9985
rtoes -10.0066
lfemur -14.563 -39.6895 -21.6194
ltibia 23.1012
lfoot -27.6537 38.7851
ltoes 30.4057
2648
root 11.8677 16.6523 -2.97536 -169.519 -167.84 -181.801
lowerback -7.4305 -0.863939 -0.617382
upperback -8.95974 -1.16198 0.648592
thorax -5.13546 -0.54636 0.988923
lowerneck -7.67031 -4.23379 -7.96097
upperneck 11.2614 -6.29537 11.9379
head 5.26913 -2.71496 4.60836
rclavicle -1.69712e-014 -4.47266e-015
rhumerus -41.3539 14.0805 -98.143
rradius 31.4064
rwrist -1.53178
rhand -1.3727 21.3481
rfingers 7.12502
rthumb 24.2749 -7.13509
lclavicle -1.69712e-014 -4.47266e-015
lhumerus -43.2899 -4.01521 93.8457
lradius 30.006
lwrist -39.6115
lhand 10.0928 39.0619
lfingers 7.12502
lthumb 35.2144 65.5677
rfemur -22.4125 25.9444 18.0912
rtibia 27.3889
rfoot -6.9024 -25.9041
rtoes -11.4609
lfemur -14.5707 -39.5201 -21.6328
ltibia 23.2073
lfoot -26.8736 39.1062
ltoes 28.8487
2649
root 11.8823 16.6492 -2.98817 -169.675 -167.586 -181.981
lowerback -7.1348 -0.896695 -0.340572
upperback -8.89561 -1.21425 0.704888
thorax -5.2345 -0.586475 0.895765
lowerneck -7.61984 -4.27599 -8.00063
upperneck 11.1056 -6.3427 11.9802
head 5.22039 -2.74184 4.62447
rclavicle 2.18415e-014 1.19271e-014
rhumerus -41.5743 14.7305 -98.6276
rradius 31.7898
rwrist -2.40394
rhand -1.00639 21.5743
rfingers 7.12502
rthumb 24.6261 -6.86144
lclavicle 2.18415e-014 1.19271e-014
lhumerus -43.3774 -4.00383 93.8619
lradius 29.9013
lwrist -39.8589
lhand 10.2823 39.0537
lfingers 7.12502
lthumb 35.394 65.5168
rfemur -22.269 26.0613 18.2821
rtibia 27.2924
rfoot -6.86766 -25.7561
rtoes -11.8551
lfemur -14.3833 -39.432 -21.651
ltibia 23.292
lfoot -27.4477 38.8583
ltoes 30.4398
2650
root 11.8954 16.6425 -3.00026 -169.891 -167.097 -181.941
lowerback -6.79767 -0.894379 -0.345247
upperback -8.83186 -1.21307 0.684633
thorax -5.35498 -0.586062 0.882703
lowerneck -7.58895 -4.27035 -7.94895
upperneck 10.9631 -6.34025 12.0536
head 5.17212 -2.73804 4.6391
rclavicle -2.11209e-014 4.77083e-015
rhumerus -41.8478 15.3931 -99.2409
rradius 32.2059
rwrist -3.44219
rhand -1.77818 21.6227
rfingers 7.12502
rthumb 23.8861 -6.91192
lclavicle -2.11209e-014 4.77083e-015
lhumerus -43.55 -4.15293 93.9168
lradius 29.9206
lwrist -39.7889
lhand 10.3368 38.7354
lfingers 7.12502
lthumb 35.4457 65.1862
rfemur -22.1562 26.1529 18.2289
rtibia 27.2181
rfoot -6.87092 -25.416
rtoes -10.2622
lfemur -14.1017 -39.4388 -21.9974
ltibia 23.3791
lfoot -28.0385 38.9635
ltoes 31.94
2651
root 11.909 16.6379 -3.01422 -169.985 -166.49 -181.773
lowerback -6.57988 -0.881523 -0.498447
upperback -8.78683 -1.19582 0.62802
thorax -5.42732 -0.570594 0.913207
lowerneck -7.55357 -4.24205 -7.83754
upperneck 10.7756 -6.30276 12.0756
head 5.10219 -2.71869 4.62989
rclavicle 9.98893e-015 2.00773e-014
rhumerus -41.9467 15.6483 -99.5491
rradius 32.5197
rwrist -3.60437
rhand -2.16711 21.6509
rfingers 7.12502
rthumb 23.5131 -6.93202
lclavicle 9.98893e-015 2.00773e-014
lhumerus -43.8154 -4.26946 93.9914
lradius 30.062
lwrist -39.4118
lhand 10.0495 38.7075
lfingers 7.12502
lthumb 35.1733 65.2229
rfemur -22.2689 26.171 17.9507
rtibia 27.1886
rfoot -6.92565 -24.9353
rtoes -9.55972
lfemur -14.0221 -39.2502 -22.3886
ltibia 23.4398
lfoot -27.6804 39.5358
ltoes 32.0861
2652
root 11.9241 16.6394 -3.0299 -169.81 -165.964 -181.921
lowerback -6.57903 -0.854552 -0.306568
upperback -8.74366 -1.16519 0.663243
thorax -5.38472 -0.566362 0.842621
lowerneck -7.62416 -4.25386 -7.52271
upperneck 10.6358 -6.3063 11.8132
head 5.05404 -2.72304 4.49078
rclavicle 8.34896e-015 -1.78906e-015
rhumerus -41.7804 15.6714 -99.5461
rradius 32.6386
rwrist -3.40381
rhand -2.02157 21.7201
rfingers 7.12502
rthumb 23.6527 -6.84486
lclavicle 8.34896e-015 -1.78906e-015
lhumerus -44.0352 -4.37391 94.136
lradius 30.1896
lwrist -39.0405
lhand 9.21612 38.4572
lfingers 7.12502
lthumb 34.3825 65.1552
rfemur -22.647 26.1747 17.9154
rtibia 27.3036
rfoot -7.54231 -24.3774
rtoes -8.49909
lfemur -14.1871 -39.2629 -22.2205
ltibia 23.3376
lfoot -27.5236 40.1427
ltoes 32.6862
2653
root 11.9401 16.6395 -3.04106 -169.769 -165.576 -181.975
lowerback -6.59342 -0.891732 -0.148869
upperback -8.59104 -1.21948 0.664007
thorax -5.21502 -0.603739 0.751787
lowerneck -7.61259 -4.27399 -7.47498
upperneck 10.3122 -6.32639 11.9415
head 4.95845 -2.7303 4.52066
rclavicle 7.47927e-015 9.93923e-016
rhumerus -41.5846 15.8599 -99.6155
rradius 32.8662
rwrist -3.80714
rhand -1.81846 21.6078
rfingers 7.12502
rthumb 23.8475 -6.9319
lclavicle 7.47927e-015 9.93923e-016
lhumerus -44.0693 -4.55982 94.2543
lradius 30.198
lwrist -38.7844
lhand 8.55236 37.5367
lfingers 7.12502
lthumb 33.752 64.3751
rfemur -22.8745 26.1581 17.8579
rtibia 27.4784
rfoot -7.95544 -24.0137
rtoes -7.83812
lfemur -14.1536 -39.6161 -22.2129
ltibia 23.1662
lfoot -27.9698 40.6339
ltoes 33.8701
2654
root 11.9572 16.6376 -3.0507 -170.032 -165.229 -181.492
lowerback -6.42554 -1.02297 -0.563255
upperback -8.42904 -1.38687 0.567797
thorax -5.12656 -0.667706 0.881025
lowerneck -7.25178 -4.23944 -7.80686
upperneck 9.69458 -6.26812 12.4932
head 4.73117 -2.70883 4.75977
rclavicle 1.31943e-014 1.03368e-014
rhumerus -41.5242 16.2264 -99.7356
rradius 33.1339
rwrist -4.42894
rhand -1.51803 21.2856
rfingers 7.12502
rthumb 24.1356 -7.21612
lclavicle 1.31943e-014 1.03368e-014
lhumerus -44.121 -4.60197 94.3206
lradius 30.2303
lwrist -38.577
lhand 8.49568 36.9122
lfingers 7.12502
lthumb 33.6982 63.7624
rfemur -22.8769 25.8647 17.3598
rtibia 27.5723
rfoot -7.42177 -23.7054
rtoes -10.0466
lfemur -13.9469 -39.7272 -22.9143
ltibia 23.1101
lfoot -28.5467 40.6709
ltoes 34.74
2655
root 11.97 16.6383 -3.06876 -170.083 -164.721 -181.219
lowerback -6.23841 -1.08456 -0.927141
upperback -8.41878 -1.46155 0.595259
thorax -5.21047 -0.683604 1.11543
lowerneck -7.03671 -4.17517 -8.01522
upperneck 9.36107 -6.16157 12.7128
head 4.59531 -2.66691 4.87479
rclavicle -5.55355e-014 -1.49089e-014
rhumerus -41.6633 16.464 -99.7408
rradius 33.4236
rwrist -4.57801
rhand -1.56076 20.7845
rfingers 7.12502
rthumb 24.0946 -7.72269
lclavicle -5.55355e-014 -1.49089e-014
lhumerus -44.3352 -4.47874 94.3976
lradius 30.3645
lwrist -38.3621
lhand 8.57656 36.257
lfingers 7.12502
lthumb 33.775 63.0904
rfemur -23.111 25.5412 17.0224
rtibia 27.6274
rfoot -6.78957 -23.1636
rtoes -12.2084
lfemur -14.0235 -39.4955 -23.2243
ltibia 23.098
lfoot -29.2446 40.5185
ltoes 34.8165
2656
root 11.9761 16.6398 -3.09261 -169.763 -164.098 -181.588
lowerback -6.21945 -1.04557 -0.790001
upperback -8.44864 -1.40769 0.808841
thorax -5.25229 -0.657897 1.26257
lowerneck -7.20665 -4.12595 -8.18105
upperneck 9.39977 -6.08593 12.8523
head 4.63723 -2.62188 4.95063
rclavicle -7.54139e-015 -9.14409e-015
rhumerus -41.7502 16.3972 -99.5138
rradius 33.7587
rwrist -4.30482
rhand -1.73283 20.78
rfingers 7.12502
rthumb 23.9296 -7.74889
lclavicle -7.54139e-015 -9.14409e-015
lhumerus -44.5469 -4.51152 94.5335
lradius 30.5802
lwrist -38.0477
lhand 8.73421 35.2662
lfingers 7.12502
lthumb 33.9248 62.0666
rfemur -23.6164 25.6667 17.2127
rtibia 27.6544
rfoot -6.59271 -22.7088
rtoes -12.6724
lfemur -14.4134 -39.5465 -22.6431
ltibia 23.112
lfoot -30.2312 40.7847
ltoes 35.2642
2657
root 11.9842 16.64 -3.11554 -169.562 -163.527 -181.812
lowerback -6.19574 -1.02873 -0.732203
upperback -8.39184 -1.38376 0.927529
thorax -5.20391 -0.646382 1.35357
lowerneck -7.29642 -4.09867 -8.15364
upperneck 9.3213 -6.04533 12.9059
head 4.62544 -2.59673 4.96443
rclavicle -2.28602e-014 -7.35503e-015
rhumerus -41.5386 16.0622 -99.1298
rradius 33.8645
rwrist -4.17995
rhand -1.6639 21.1673
rfingers 7.12502
rthumb 23.9957 -7.35291
lclavicle -2.28602e-014 -7.35503e-015
lhumerus -44.6637 -4.58639 94.5763
lradius 30.7973
lwrist -37.8334
lhand 8.79063 34.4745
lfingers 7.12502
lthumb 33.9784 61.263
rfemur -24.0104 25.8361 17.2593
rtibia 27.6398
rfoot -6.48183 -22.3328
rtoes -12.3001
lfemur -14.7235 -39.8543 -22.2868
ltibia 23.2043
lfoot -31.3373 41.1973
ltoes 37.0972
